<svg xmlns="http://www.w3.org/2000/svg" width="24.422" height="24.422" viewBox="0 0 24.422 24.422">
  <defs>
    <style>
      .cls-1 {
        fill: #281c3c;
      }
    </style>
  </defs>
  <g id="Attach" transform="translate(0 0)">
    <g id="Group_2" data-name="Group 2" transform="translate(0 0)">
      <path id="Path_1" data-name="Path 1" class="cls-1" d="M35.3,24.108a1,1,0,0,0,1.391,0,5.924,5.924,0,0,0-8.378-8.378L15.73,28.314a5.936,5.936,0,0,0,8.412,8.378l8.514-8.514h0a3.509,3.509,0,0,0-.1-4.783,3.439,3.439,0,0,0-4.884,0l-7.055,7.021A.983.983,0,0,0,22,31.808l6.987-6.987a1.487,1.487,0,0,1,2.1,2.1h0L22.717,35.3a3.957,3.957,0,0,1-5.6-5.6L29.7,17.121a3.957,3.957,0,0,1,5.6,5.6A.945.945,0,0,0,35.3,24.108Z" transform="translate(-14 -14)"/>
    </g>
  </g>
</svg>
