<svg xmlns="http://www.w3.org/2000/svg" width="27.724" height="27.724" viewBox="0 0 27.724 27.724">
  <defs>
    <style>
      .cls-1 {
        fill: #281c3c;
      }
    </style>
  </defs>
  <g id="Face" transform="translate(-2 -2)">
    <g id="Group_3" data-name="Group 3" transform="translate(17.968 6.685)">
      <path id="Path_2" data-name="Path 2" d="M60,23.638a2.708,2.708,0,1,1,2.708-2.708A2.711,2.711,0,0,1,60,23.638Zm0-4.213a1.5,1.5,0,1,0,1.5,1.5A1.506,1.506,0,0,0,60,19.425Z" transform="translate(-57.293 -18.222)"/>
    </g>
    <g id="Group_4" data-name="Group 4" transform="translate(9.092 6.685)">
      <path id="Path_3" data-name="Path 3" d="M29.265,23.638a2.708,2.708,0,1,1,2.708-2.708A2.711,2.711,0,0,1,29.265,23.638Zm0-4.213a1.5,1.5,0,1,0,1.5,1.5A1.506,1.506,0,0,0,29.265,19.425Z" transform="translate(-26.557 -18.222)"/>
    </g>
    <path id="Path_4" data-name="Path 4" class="cls-1" d="M15.862,2A13.862,13.862,0,1,0,29.724,15.862,13.877,13.877,0,0,0,15.862,2ZM3.2,15.862A12.673,12.673,0,0,1,15.847,3.2v9.73l2.491,2.9-2.183,2.118v3.411H13.146v1.2h3.009v5.948c-.1,0-.2.007-.294.007A12.673,12.673,0,0,1,3.2,15.862ZM17.359,28.429V22.565h3.01v-1.2h-3.01v-2.9l2.631-2.553-2.939-3.42V3.261a12.656,12.656,0,0,1,.308,25.168Z"/>
  </g>
</svg>
