<svg xmlns="http://www.w3.org/2000/svg" width="20" height="17.275" viewBox="0 0 20 17.275">
  <defs>
    <style>
      .cls-1 {
        fill: #aa0445;
      }
    </style>
  </defs>
  <g id="Heart" transform="translate(-17.214 -21.681)">
    <path id="Path_5" data-name="Path 5" class="cls-1" d="M31.371,21.681a5.853,5.853,0,0,0-4.157,1.738,5.842,5.842,0,0,0-10,4.105c0,3.078,1.7,6.019,4.915,8.507a22.072,22.072,0,0,0,4.8,2.813l.282.113.282-.113a22.072,22.072,0,0,0,4.8-2.813c3.215-2.488,4.915-5.429,4.915-8.507A5.85,5.85,0,0,0,31.371,21.681ZM27.214,37.3c-1.5-.674-8.475-4.109-8.475-9.781a4.318,4.318,0,0,1,7.852-2.482l.623.885.623-.885a4.318,4.318,0,0,1,7.852,2.482C35.689,33.2,28.718,36.631,27.214,37.3Z"/>
  </g>
</svg>
