<svg id="Phone" xmlns="http://www.w3.org/2000/svg" width="23.243" height="23.243" viewBox="0 0 23.243 23.243">
  <defs>
    <style>
      .cls-1 {
        fill: #281c3c;
        fill-rule: evenodd;
      }
    </style>
  </defs>
  <path id="Path_10" data-name="Path 10" class="cls-1" d="M507.694,862.712a1.678,1.678,0,0,1,.154,2.557l-2.48,2.48c-2.609,2.609-10.222.04-14.73-4.469s-7.079-12.12-4.469-14.73l2.48-2.48a1.678,1.678,0,0,1,2.557.154l2.913,3.745a2.1,2.1,0,0,1-.173,2.72l-1.651,1.651a1.455,1.455,0,0,0-.2,1.675c.02.041.065.127.137.252.121.213.271.454.449.719a16.261,16.261,0,0,0,4.251,4.25c.265.179.507.328.72.45.125.071.211.117.282.153a1.457,1.457,0,0,0,1.64-.216l1.651-1.651a2.1,2.1,0,0,1,2.72-.173Zm-.575.739-3.745-2.913a1.167,1.167,0,0,0-1.483.1l-1.651,1.651a2.379,2.379,0,0,1-2.743.379c-.059-.029-.162-.083-.305-.165-.233-.133-.495-.3-.78-.487a17.2,17.2,0,0,1-4.5-4.5c-.192-.284-.353-.545-.486-.778-.081-.142-.136-.246-.145-.269a2.374,2.374,0,0,1,.357-2.783l1.651-1.651a1.166,1.166,0,0,0,.1-1.483l-2.913-3.745a.743.743,0,0,0-1.156-.067l-2.48,2.48c-2.118,2.118.279,9.216,4.469,13.406s11.289,6.586,13.406,4.469l2.48-2.48A.743.743,0,0,0,507.119,863.451Z" transform="translate(-485.124 -845.552)"/>
</svg>
