<svg id="Video_Camera" data-name="Video Camera" xmlns="http://www.w3.org/2000/svg" width="28.432" height="15.448" viewBox="0 0 28.432 15.448">
  <defs>
    <style>
      .cls-1 {
        fill: #281c3c;
      }
    </style>
  </defs>
  <path id="Path_15" data-name="Path 15" class="cls-1" d="M34.194,25.836H19a2.512,2.512,0,0,0-2.509,2.51v3.9l-5.664-3.886a1.981,1.981,0,0,0-1.118-.39c-.713,0-1.433.536-1.433,1.733v8.472c0,1.2.72,1.733,1.433,1.733a1.976,1.976,0,0,0,1.118-.39l5.664-3.886v3.14A2.512,2.512,0,0,0,19,41.285h15.2A2.512,2.512,0,0,0,36.7,38.775V28.346A2.513,2.513,0,0,0,34.194,25.836ZM15.9,34.457l-5.817,3.991a.738.738,0,0,1-.382.161c-.081,0-.132-.224-.132-.432V29.706c0-.208.051-.432.132-.432a.731.731,0,0,1,.382.161L15.9,33.427a.554.554,0,0,1,0,1.03Zm19.5,4.318a1.21,1.21,0,0,1-1.209,1.209H19a1.21,1.21,0,0,1-1.208-1.209V28.346A1.209,1.209,0,0,1,19,27.138h15.2A1.21,1.21,0,0,1,35.4,28.346V38.775Z" transform="translate(-8.272 -25.836)"/>
</svg>
